<?xml version="1.0" encoding="utf-8"?>
<svg viewBox="93.27293395996094 229.2906036376953 139.4950714111328 50.61439514160156" width="139.4950714111328" height="50.61439514160156" xmlns="http://www.w3.org/2000/svg">
  <path d="M 141.457 243.299 L 141.457 260.714 L 141.457 260.714 C 141.457 263.246 141.617 265.393 141.937 267.154 L 141.937 267.154 L 141.937 267.154 C 142.262 268.913 142.73 270.36 143.343 271.495 L 143.343 271.495 L 143.343 271.495 C 143.953 272.628 144.686 273.476 145.54 274.037 L 145.54 274.037 L 145.54 274.037 C 146.395 274.595 147.354 274.924 148.418 275.024 L 148.418 275.024 L 148.418 279.905 L 148.418 279.905 C 146.453 279.773 144.672 279.288 143.074 278.451 L 143.074 278.451 L 143.074 278.451 C 141.48 277.613 140.135 276.413 139.038 274.85 L 139.038 274.85 L 139.038 274.85 C 137.943 273.287 137.089 271.372 136.477 269.103 L 136.477 269.103 L 136.477 269.103 C 135.863 266.832 135.557 264.233 135.557 261.306 L 135.557 261.306 L 135.557 243.299 L 141.457 243.299 Z M 157.407 243.299 L 163.255 243.299 L 163.255 261.306 L 163.255 261.306 C 163.255 264.233 162.949 266.832 162.34 269.103 L 162.34 269.103 L 162.34 269.103 C 161.727 271.372 160.864 273.287 159.75 274.85 L 159.75 274.85 L 159.75 274.85 C 158.641 276.413 157.295 277.613 155.714 278.451 L 155.714 278.451 L 155.714 278.451 C 154.136 279.288 152.364 279.773 150.399 279.905 L 150.399 279.905 L 150.399 275.024 L 150.399 275.024 C 151.462 274.892 152.42 274.554 153.276 274.008 L 153.276 274.008 L 153.276 274.008 C 154.128 273.466 154.861 272.636 155.474 271.519 L 155.474 271.519 L 155.474 271.519 C 156.086 270.4 156.563 268.961 156.902 267.203 L 156.902 267.203 L 156.902 267.203 C 157.238 265.444 157.407 263.281 157.407 260.714 L 157.407 260.714 L 157.407 243.299 Z M 171.567 279.659 L 171.567 243.299 L 177.369 243.299 L 177.369 279.659 L 171.567 279.659 Z M 187.617 265.354 L 195.738 279.659 L 189.598 279.659 L 182.882 266.486 L 182.882 266.486 C 182.785 266.486 182.68 266.495 182.566 266.514 L 182.566 266.514 L 182.566 266.514 C 182.453 266.53 182.285 266.537 182.061 266.537 L 182.061 266.537 L 182.061 266.537 C 181.835 266.537 181.503 266.537 181.067 266.537 L 181.067 266.537 L 181.067 266.537 C 180.633 266.537 180.062 266.537 179.354 266.537 L 179.354 266.537 L 179.354 262.196 L 182.641 262.196 L 182.641 262.196 C 183.349 262.196 184.058 262.073 184.768 261.826 L 184.768 261.826 L 184.768 261.826 C 185.475 261.579 186.121 261.176 186.701 260.617 L 186.701 260.617 L 186.701 260.617 C 187.28 260.057 187.747 259.275 188.103 258.274 L 188.103 258.274 L 188.103 258.274 C 188.456 257.27 188.632 256.027 188.632 254.548 L 188.632 254.548 L 188.632 254.548 C 188.632 253.957 188.551 253.276 188.391 252.502 L 188.391 252.502 L 188.391 252.502 C 188.231 251.729 187.9 250.988 187.4 250.279 L 187.4 250.279 L 187.4 250.279 C 186.9 249.573 186.2 248.981 185.297 248.503 L 185.297 248.503 L 185.297 248.503 C 184.395 248.028 183.203 247.79 181.721 247.79 L 181.721 247.79 L 179.354 247.79 L 179.354 243.299 L 181.816 243.299 L 181.816 243.299 C 183.332 243.299 184.831 243.547 186.315 244.041 L 186.315 244.041 L 186.315 244.041 C 187.797 244.535 189.125 245.274 190.3 246.26 L 190.3 246.26 L 190.3 246.26 C 191.477 247.247 192.428 248.44 193.153 249.836 L 193.153 249.836 L 193.153 249.836 C 193.877 251.235 194.239 252.805 194.239 254.548 L 194.239 254.548 L 194.239 254.548 C 194.239 257.18 193.644 259.417 192.451 261.258 L 192.451 261.258 L 192.451 261.258 C 191.259 263.099 189.649 264.465 187.617 265.354 L 187.617 265.354 Z M 220.393 243.348 L 232.768 279.659 L 226.773 279.659 L 217.54 252.426 L 208.211 279.659 L 202.169 279.659 L 214.638 243.348 L 220.393 243.348 Z M 214.251 268.116 L 220.728 268.116 L 222.133 272.112 L 212.898 272.112 L 214.251 268.116 Z" style="line-height: 200.695px; white-space: pre; fill: rgb(33, 33, 33); vector-effect: non-scaling-stroke; stroke-width: 3;" transform="matrix(0.9999999999999999, 0, 0, 0.9999999999999999, 0, -1.4210854715202004e-14)"/>
  <path d="M 99.439 267.202 L 111.748 267.202 L 111.748 270.49 L 99.439 270.49 L 99.439 267.202 Z" style="fill: rgb(33, 33, 33); vector-effect: non-scaling-stroke;" transform="matrix(0.9999999999999999, 0, 0, 0.9999999999999999, 0, -1.4210854715202004e-14)"/>
  <path d="M 102.285 251.426 L 115.567 251.426 L 115.567 254.714 L 102.285 254.714 L 102.285 251.426 Z" style="fill: rgb(33, 33, 33); vector-effect: non-scaling-stroke; stroke-width: 34;" transform="matrix(0.9999999999999999, 0, 0, 0.9999999999999999, 0, -1.4210854715202004e-14)"/>
  <path d="M 100.446 241.943 L 104.981 241.943 L 102.445 279.569 L 97.911 279.569 L 100.446 241.943 Z" style="fill: rgb(33, 33, 33); vector-effect: non-scaling-stroke; stroke: rgb(33, 33, 33);" transform="matrix(0.9675630927085875, 0.25262799859046936, -0.25262799859046936, 0.9675630927085875, 69.16481781005858, -17.170082092285163)"/>
  <g transform="matrix(0.30017101764678955, 0, 0, 0.25567302107810974, 73.99130249023436, 199.3943634033203)">
    <path d="M 121.569 235.254 L 161.766 235.254 L 161.766 248.97 L 121.569 248.97 L 121.569 235.254 Z" style="fill: rgb(33, 33, 33); stroke: rgb(55, 55, 55); stroke-width: 3.59813;"/>
    <path d="M 160.01 170.728 L 175.168 170.728 L 172.278 313.359 L 157.12 313.359 L 160.01 170.728 Z" style="fill: rgb(33, 33, 33); stroke: rgb(55, 55, 55); stroke-width: 3.60086;" transform="matrix(0.962808, -0.270188, 0.270188, 0.962808, -59.217909, 53.892247)"/>
  </g>
  <g transform="matrix(0.18220601975917816, -0.008573000319302082, 0.007423000410199165, 0.247404009103775, 90.83969116210936, 200.0473175048828)">
    <rect x="176.101" y="154.781" width="3.994" height="25.565" style="stroke: rgb(255, 255, 255); fill: rgb(66, 128, 253);"/>
    <ellipse transform="matrix(-0.811496, 0.584357, -0.936949, -0.557596, 359.52254, 131.144213)" cx="144.936" cy="68.341" rx="5.469" ry="5.21" style="stroke: rgb(255, 255, 255); fill: rgb(66, 128, 253);"/>
    <rect x="140.676" y="39.509" width="8.432" height="22.66" rx="1.621" ry="1.621" transform="matrix(1.000002, 0, 0, 1, 32.76212, 138.803464)" style="stroke: rgb(255, 255, 255); fill: rgb(66, 128, 253);"/>
  </g>
  <path d="M 111.351 233.39 L 125.475 233.39 L 114.724 243.302 L 100.601 243.302 L 111.351 233.39 Z" style="stroke: rgb(255, 255, 255); fill: rgb(66, 128, 253);" transform="matrix(-0.934609055519104, -0.3556760251522064, 0.3556760251522064, -0.934609055519104, 133.91036987304688, 501.3113098144531)"/>
</svg>