<?xml version="1.0" encoding="utf-8"?>
<svg viewBox="16.607603073120117 125.52320098876953 478.3374328613281 190.05169677734375" width="478.3374328613281" height="190.05169677734375" xmlns="http://www.w3.org/2000/svg">
  <path d="M 189.962 194.306 L 189.962 251.562 L 189.962 251.562 C 189.962 259.886 190.496 266.943 191.569 272.734 L 191.569 272.734 L 191.569 272.734 C 192.651 278.516 194.213 283.273 196.262 287.008 L 196.262 287.008 L 196.262 287.008 C 198.3 290.731 200.746 293.519 203.602 295.363 L 203.602 295.363 L 203.602 295.363 C 206.459 297.199 209.661 298.279 213.212 298.606 L 213.212 298.606 L 213.212 314.655 L 213.212 314.655 C 206.648 314.222 200.699 312.629 195.365 309.875 L 195.365 309.875 L 195.365 309.875 C 190.041 307.121 185.546 303.175 181.881 298.037 L 181.881 298.037 L 181.881 298.037 C 178.227 292.9 175.375 286.601 173.327 279.142 L 173.327 279.142 L 173.327 279.142 C 171.281 271.674 170.257 263.13 170.257 253.508 L 170.257 253.508 L 170.257 194.306 L 189.962 194.306 Z M 243.237 194.306 L 262.77 194.306 L 262.77 253.508 L 262.77 253.508 C 262.77 263.13 261.751 271.674 259.711 279.142 L 259.711 279.142 L 259.711 279.142 C 257.665 286.601 254.783 292.9 251.065 298.037 L 251.065 298.037 L 251.065 298.037 C 247.359 303.175 242.863 307.121 237.583 309.875 L 237.583 309.875 L 237.583 309.875 C 232.31 312.629 226.392 314.222 219.828 314.655 L 219.828 314.655 L 219.828 298.606 L 219.828 298.606 C 223.377 298.174 226.58 297.061 229.437 295.269 L 229.437 295.269 L 229.437 295.269 C 232.284 293.486 234.732 290.759 236.778 287.087 L 236.778 287.087 L 236.778 287.087 C 238.825 283.405 240.416 278.675 241.55 272.893 L 241.55 272.893 L 241.55 272.893 C 242.674 267.111 243.237 259.999 243.237 251.562 L 243.237 251.562 L 243.237 194.306 Z M 290.536 313.849 L 290.536 194.306 L 309.911 194.306 L 309.911 313.849 L 290.536 313.849 Z M 344.141 266.815 L 371.266 313.849 L 350.757 313.849 L 328.325 270.535 L 328.325 270.535 C 327.999 270.535 327.647 270.566 327.27 270.628 L 327.27 270.628 L 327.27 270.628 C 326.892 270.681 326.331 270.708 325.582 270.708 L 325.582 270.708 L 325.582 270.708 C 324.828 270.708 323.721 270.708 322.261 270.708 L 322.261 270.708 L 322.261 270.708 C 320.811 270.708 318.905 270.708 316.541 270.708 L 316.541 270.708 L 316.541 256.434 L 327.521 256.434 L 327.521 256.434 C 329.886 256.434 332.252 256.028 334.626 255.215 L 334.626 255.215 L 334.626 255.215 C 336.989 254.403 339.141 253.079 341.082 251.243 L 341.082 251.243 L 341.082 251.243 C 343.017 249.398 344.576 246.83 345.762 243.537 L 345.762 243.537 L 345.762 243.537 C 346.94 240.236 347.527 236.151 347.527 231.289 L 347.527 231.289 L 347.527 231.289 C 347.527 229.346 347.261 227.104 346.724 224.562 L 346.724 224.562 L 346.724 224.562 C 346.188 222.02 345.086 219.584 343.416 217.253 L 343.416 217.253 L 343.416 217.253 C 341.746 214.932 339.405 212.984 336.391 211.415 L 336.391 211.415 L 336.391 211.415 C 333.378 209.852 329.397 209.07 324.449 209.07 L 324.449 209.07 L 316.541 209.07 L 316.541 194.306 L 324.766 194.306 L 324.766 194.306 C 329.827 194.306 334.834 195.117 339.792 196.742 L 339.792 196.742 L 339.792 196.742 C 344.741 198.367 349.176 200.799 353.102 204.039 L 353.102 204.039 L 353.102 204.039 C 357.031 207.286 360.208 211.206 362.634 215.796 L 362.634 215.796 L 362.634 215.796 C 365.05 220.396 366.257 225.559 366.257 231.289 L 366.257 231.289 L 366.257 231.289 C 366.257 239.939 364.268 247.294 360.287 253.349 L 360.287 253.349 L 360.287 253.349 C 356.306 259.404 350.925 263.893 344.141 266.815 L 344.141 266.815 Z M 453.612 194.465 L 494.945 313.849 L 474.924 313.849 L 444.082 224.311 L 412.923 313.849 L 392.744 313.849 L 434.394 194.465 L 453.612 194.465 Z M 433.102 275.898 L 454.732 275.898 L 459.423 289.033 L 428.581 289.033 L 433.102 275.898 Z" style="fill: rgb(169, 111, 13); line-height: 200.695px; white-space: pre;" transform="matrix(1, 0, 0, 1, 0, 7.105427357601002e-15)"/>
  <path d="M 36.156 268.419 L 96.612 268.419 L 96.612 281.325 L 36.156 281.325 L 36.156 268.419 Z" style="fill: rgb(148, 80, 24);" transform="matrix(1, 0, 0, 1, 0, 7.105427357601002e-15)"/>
  <path d="M 49.687 206.494 L 93.936 206.494 L 93.936 219.4 L 49.687 219.4 L 49.687 206.494 Z" style="fill: rgb(148, 80, 24);" transform="matrix(1, 0, 0, 1, 0, 7.105427357601002e-15)"/>
  <path d="M 37.648 170.168 L 52.94 170.168 L 56.139 316.064 L 40.847 316.064 L 37.648 170.168 Z" style="fill: rgb(148, 80, 24);" transform="matrix(0.9557950496673584, 0.2940330505371094, -0.2940330505371094, 0.9557950496673584, 73.55709075927736, -3.041353940963738)"/>
  <path d="M 89.965 238.495 L 137.455 238.495 L 137.455 252.211 L 89.965 252.211 L 89.965 238.495 Z" style="fill: rgb(148, 80, 24);" transform="matrix(1, 0, 0, 1, 0, 7.105427357601002e-15)"/>
  <path d="M 130.026 173.159 L 145.184 173.159 L 142.294 315.789 L 127.136 315.789 L 130.026 173.159 Z" style="fill: rgb(148, 80, 24);" transform="matrix(0.9628080129623413, -0.27018797397613525, 0.27018797397613525, 0.9628080129623413, -60.98978042602539, 45.88133621215822)"/>
  <g transform="matrix(0.6952320337295532, -0.026122000068426132, 0.028324998915195465, 0.7538550496101379, 17.9741153717041, 46.02925872802736)">
    <rect x="176.101" y="154.781" width="3.994" height="25.565" style="fill: rgb(94, 94, 94);"/>
    <ellipse transform="matrix(-0.811496, 0.584357, -0.936949, -0.557596, 359.52254, 131.144213)" cx="144.936" cy="68.341" rx="5.469" ry="5.21" style="fill: rgb(94, 94, 94);"/>
    <rect x="140.676" y="39.509" width="8.432" height="22.66" rx="1.621" ry="1.621" transform="matrix(1.000002, 0, 0, 1, 32.76212, 138.803464)" style="fill: rgb(94, 94, 94);"/>
  </g>
  <path d="M 86.426 141.249 L 147.783 141.249 L 95.865 175.646 L 34.507 175.646 L 86.426 141.249 Z" style="fill: rgb(94, 94, 94);" transform="matrix(-0.9567920565605164, -0.29077401757240295, 0.29077401757240295, -0.9567920565605164, 132.27935791015625, 336.55136108398443)"/>
</svg>