<?xml version="1.0" encoding="utf-8"?>
<svg viewBox="85.94322967529297 193.687255859375 175.29595947265625 205.89151000976562" width="175.29595947265625" height="205.89151000976562" xmlns="http://www.w3.org/2000/svg">
  <path d="M 105.539 346.106 L 180.345 346.106 L 180.345 359.875 L 105.539 359.875 L 105.539 346.106 Z" style="fill: rgb(230, 117, 24);" transform="matrix(1, 0, 0, 1, 0, 7.105427357601002e-15)"/>
  <path d="M 123.092 280.851 L 177.843 280.851 L 177.843 294.62 L 123.092 294.62 L 123.092 280.851 Z" style="fill: rgb(230, 117, 24);" transform="matrix(1, 0, 0, 1, 0, 7.105427357601002e-15)"/>
  <path d="M 114.904 241.218 L 133.616 241.218 L 124.365 398.625 L 105.654 398.625 L 114.904 241.218 Z" style="fill: rgb(230, 117, 24);" transform="matrix(0.9665760397911072, 0.25637900829315186, -0.25637900829315186, 0.9665760397911072, 86.01968383789064, -19.978937149047844)"/>
  <path d="M 172.93 314.991 L 231.692 314.991 L 231.692 329.625 L 172.93 329.625 L 172.93 314.991 Z" style="fill: rgb(230, 117, 24);" transform="matrix(1, 0, 0, 1, 0, 7.105427357601002e-15)"/>
  <path d="M 216.625 244.564 L 235.205 244.564 L 243.554 398.177 L 224.975 398.177 L 216.625 244.564 Z" style="fill: rgb(230, 117, 24);" transform="matrix(0.9719539880752563, -0.23517200350761414, 0.23517200350761414, 0.9719539880752563, -69.12416076660156, 63.12380218505861)"/>
  <g transform="matrix(0.8602529764175415, -0.027869002893567085, 0.035047996789216995, 0.8042629957199097, 83.85123443603517, 109.65575408935548)">
    <rect x="176.101" y="154.781" width="3.994" height="25.565" style="fill: rgb(255, 206, 120);"/>
    <ellipse transform="matrix(-0.811496, 0.584357, -0.936949, -0.557596, 359.52254, 131.144213)" cx="144.936" cy="68.341" rx="5.469" ry="5.21" style="fill: rgb(255, 206, 120);"/>
    <rect x="140.676" y="39.509" width="8.432" height="22.66" rx="1.621" ry="1.621" transform="matrix(1.000002, 0, 0, 1, 32.76212, 138.803464)" style="fill: rgb(255, 206, 120);"/>
  </g>
  <path d="M 170.15 211.041 L 245.243 211.041 L 178.63 248.142 L 103.536 248.142 L 170.15 211.041 Z" transform="matrix(-0.9673420786857605, -0.25347399711608887, 0.25347399711608887, -0.9673420786857605, 284.8884582519531, 495.88818359375006)" style="fill: rgb(255, 206, 120);"/>
</svg>