
<svg width="30px" height="23px" viewBox="0 0 30 23" version="1.1" xmlns="http://www.w3.org/2000/svg" xmlns:xlink="http://www.w3.org/1999/xlink">
    <!-- Generator: Sketch 51.2 (57519) - http://www.bohemiancoding.com/sketch -->
    <desc>Created with Sketch.</desc>
    <defs></defs>
    <g id="Page-1" stroke="none" stroke-width="1" fill="none" fill-rule="evenodd" opacity="0.3">
        <g id="Answer-View---Two-Scroll-Search-Concepts-Copy" transform="translate(-21.000000, -243.000000)">
            <g id="Group-14" transform="translate(0.000000, 60.000000)">
                <g id="ic_import_contacts" transform="translate(18.000000, 177.000000)">
                    <polygon id="Bounds" points="0 0 35 0 35 36 0 36"></polygon>
                    <path d="M29.4848487,6.96818183 C28.0426896,6.50045455 26.4576139,6.3 24.9375002,6.3 C22.4039775,6.3 19.6755683,6.83454546 17.7916668,8.30454547 C15.9077653,6.83454546 13.1793562,6.3 10.6458334,6.3 C8.11231065,6.3 5.38390153,6.83454546 3.5,8.30454547 L3.5,27.8822729 C3.5,28.2163639 3.82481061,28.5504548 4.14962122,28.5504548 C4.27954546,28.5504548 4.34450758,28.4836366 4.47443183,28.4836366 C6.22840912,27.6150002 8.76193187,27.0136366 10.6458334,27.0136366 C13.1793562,27.0136366 15.9077653,27.548182 17.7916668,29.018182 C19.5456441,27.8822729 22.7287881,27.0136366 24.9375002,27.0136366 C27.0812502,27.0136366 29.2899624,27.4145457 31.1089018,28.4168184 C31.238826,28.4836366 31.3037882,28.4836366 31.4337124,28.4836366 C31.758523,28.4836366 32.0833336,28.1495457 32.0833336,27.8154548 L32.0833336,8.30454547 C31.3037882,7.70318183 30.4592806,7.30227274 29.4848487,6.96818183 L29.4848487,6.96818183 Z M29.4848488,25.0090911 C28.0556821,24.5413638 26.4965911,24.3409093 24.9375002,24.3409093 C22.7287881,24.3409093 19.5456441,25.2095456 17.7916668,26.3454548 L17.7916668,10.9772728 C19.5456441,9.84136367 22.7287881,8.9727273 24.9375002,8.9727273 C26.4965911,8.9727273 28.0556821,9.17318185 29.4848488,9.64090913 L29.4848488,25.0090911 L29.4848488,25.0090911 Z" id="Icon" fill="#FFFFFF"></path>
                </g>
            </g>
        </g>
    </g>
</svg>
