
<svg width="25px" height="30px" viewBox="0 0 25 30" version="1.1" xmlns="http://www.w3.org/2000/svg" xmlns:xlink="http://www.w3.org/1999/xlink">
    <!-- Generator: Sketch 51.2 (57519) - http://www.bohemiancoding.com/sketch -->
    <desc>Created with Sketch.</desc>
    <defs></defs>
    <g id="Page-1" stroke="none" stroke-width="1" fill="none" fill-rule="evenodd">
        <g id="Answer-View---Two-Scroll-Search-Concepts-Copy" transform="translate(-23.000000, -115.000000)">
            <g id="Group-14" transform="translate(0.000000, 60.000000)">
                <g id="ic_description" transform="translate(18.000000, 52.000000)">
                    <polygon id="Bounds" points="0 0 35 0 35 36 0 36"></polygon>
                    <path d="M20.4166667,3 L8.75,3 C7.14583333,3 5.84791667,4.35 5.84791667,6 L5.83333333,30 C5.83333333,31.65 7.13125,33 8.73541667,33 L26.25,33 C27.8541667,33 29.1666667,31.65 29.1666667,30 L29.1666667,12 L20.4166667,3 L20.4166667,3 Z M23.3333333,27 L11.6666667,27 L11.6666667,24 L23.3333333,24 L23.3333333,27 L23.3333333,27 Z M23.3333333,21 L11.6666667,21 L11.6666667,18 L23.3333333,18 L23.3333333,21 L23.3333333,21 Z M18.9583333,13.5 L18.9583333,5.25 L26.9791667,13.5 L18.9583333,13.5 L18.9583333,13.5 Z" id="Icon" fill="#F9AA33"></path>
                </g>
            </g>
        </g>
    </g>
</svg>
