
<svg width="18px" height="18px" viewBox="0 0 18 18" version="1.1" xmlns="http://www.w3.org/2000/svg" xmlns:xlink="http://www.w3.org/1999/xlink">
    <!-- Generator: Sketch 51.2 (57519) - http://www.bohemiancoding.com/sketch -->
    <desc>Created with Sketch.</desc>
    <defs></defs>
    <g id="Page-1" stroke="none" stroke-width="1" fill="none" fill-rule="evenodd">
        <g id="Questions-List" transform="translate(-1125.000000, -99.000000)">
            <g id="ic_group_add-copy" transform="translate(1116.000000, 91.000000)">
                <polygon id="Bounds" points="0 0 35 0 35 35 0 35"></polygon>
                <path d="M26.8704213,8.50309442 C26.7638785,8.24490638 26.5121336,8.07692308 26.2327751,8.07692308 L9.66455856,8.07692308 C9.38543013,8.07692308 9.13368529,8.24490638 9.02691234,8.50309442 C8.92013939,8.76128246 8.9790486,9.05812968 9.17648651,9.25556759 L15.591838,15.6711492 C15.7308269,15.8096779 15.8776397,16.1645139 15.8776397,16.3610313 L15.8776397,22.5741125 C15.8776397,22.7572834 15.9503558,22.9328604 16.0799101,23.0621846 L18.8412795,25.823554 C18.9731349,25.9556395 19.1498625,26.0258243 19.3295816,26.0258243 C19.4184057,26.0258243 19.5081502,26.0087959 19.5935225,25.9731282 C19.8517106,25.8665853 20.0196939,25.6148405 20.0196939,25.3354819 L20.0196939,16.3610313 C20.0196939,16.1645139 20.1667368,15.8096779 20.3054956,15.670689 L26.7208471,9.25533748 C26.918285,9.05812968 26.9774244,8.76105235 26.8704213,8.50309442 Z" id="Shape" fill="#007eff" fill-rule="nonzero"></path>
            </g>
        </g>
    </g>
</svg>
