
<svg width="27px" height="28px" viewBox="0 0 27 28" version="1.1" xmlns="http://www.w3.org/2000/svg" xmlns:xlink="http://www.w3.org/1999/xlink">
    <!-- Generator: Sketch 51.2 (57519) - http://www.bohemiancoding.com/sketch -->
    <desc>Created with Sketch.</desc>
    <defs></defs>
    <g id="Page-1" stroke="none" stroke-width="1" fill="none" fill-rule="evenodd" opacity="0.3">
        <g id="Answer-View---Two-Scroll-Search-Concepts-Copy" transform="translate(-22.000000, -179.000000)">
            <g id="Group-14" transform="translate(0.000000, 60.000000)">
                <g id="ic_move_to_inbox" transform="translate(18.000000, 115.000000)">
                    <polygon id="Bounds" points="0 0 35 0 35 36 0 36"></polygon>
                    <path d="M27.7083333,4.5 L7.27708333,4.5 C5.65833333,4.5 4.38958333,5.85 4.38958333,7.5 L4.375,28.5 C4.375,30.15 5.65833333,31.5 7.27708333,31.5 L27.7083333,31.5 C29.3125,31.5 30.625,30.15 30.625,28.5 L30.625,7.5 C30.625,5.85 29.3125,4.5 27.7083333,4.5 L27.7083333,4.5 Z M27.7083333,22.5 L21.875,22.5 C21.875,24.99 19.90625,27 17.5,27 C15.09375,27 13.125,24.99 13.125,22.5 L7.27708333,22.5 L7.27708333,7.5 L27.7083333,7.5 L27.7083333,22.5 L27.7083333,22.5 Z M23.3333333,15 L20.4166667,15 L20.4166667,10.5 L14.5833333,10.5 L14.5833333,15 L11.6666667,15 L17.5,21 L23.3333333,15 L23.3333333,15 Z" id="Icon" fill="#FFFFFF"></path>
                </g>
            </g>
        </g>
    </g>
</svg>
