
<svg width="20px" height="20px" viewBox="0 0 20 20" version="1.1" xmlns="http://www.w3.org/2000/svg" xmlns:xlink="http://www.w3.org/1999/xlink">
    <!-- Generator: Sketch 51.2 (57519) - http://www.bohemiancoding.com/sketch -->
    <desc>Created with Sketch.</desc>
    <defs></defs>
    <g id="Page-1" stroke="none" stroke-width="1" fill="none" fill-rule="evenodd">
        <g id="Answer-View---Two-Scroll-Search-Concepts-Copy" transform="translate(-1329.000000, -80.000000)">
            <g id="Group" transform="translate(70.000000, 60.000000)">
                <g id="ic_save-copy" transform="translate(1254.000000, 15.000000)">
                    <polygon id="Bounds" points="0 0 30 0 30 30 0 30"></polygon>
                    <path d="M8.20833333,5 L8.20833333,7.13888889 L12.4861111,7.13888889 L12.4861111,5 L8.20833333,5 Z M16.7638889,5 L16.7638889,7.13888889 L21.0416667,7.13888889 L21.0416667,5 L16.7638889,5 Z M8.20833333,9.27777778 C7.618,9.27777778 7.13888889,9.75688889 7.13888889,10.3472222 L7.13888889,12.4861111 C5.95715278,12.4861111 5,13.4432639 5,14.625 L5,23.1805556 C5,23.7708889 5.47911111,24.25 6.06944444,24.25 L12.4861111,24.25 C13.0764444,24.25 13.5555556,23.7708889 13.5555556,23.1805556 L13.5555556,16.7638889 L15.6944444,16.7638889 L15.6944444,23.1805556 C15.6944444,23.7708889 16.1735556,24.25 16.7638889,24.25 L23.1805556,24.25 C23.7708889,24.25 24.25,23.7708889 24.25,23.1805556 L24.25,14.625 C24.25,13.4432639 23.2928472,12.4861111 22.1111111,12.4861111 L22.1111111,10.3472222 C22.1111111,9.75688889 21.632,9.27777778 21.0416667,9.27777778 L16.7638889,9.27777778 C16.1735556,9.27777778 15.6944444,9.75688889 15.6944444,10.3472222 L15.6944444,12.4861111 L13.5555556,12.4861111 L13.5555556,10.3472222 C13.5555556,9.75688889 13.0764444,9.27777778 12.4861111,9.27777778 L8.20833333,9.27777778 Z" id="Shape-Copy" fill="#878D90" fill-rule="nonzero"></path>
                </g>
            </g>
        </g>
    </g>
</svg>
