
<svg width="21px" height="21px" viewBox="0 0 21 21" version="1.1" xmlns="http://www.w3.org/2000/svg" xmlns:xlink="http://www.w3.org/1999/xlink">
    <!-- Generator: Sketch 51.2 (57519) - http://www.bohemiancoding.com/sketch -->
    <desc>Created with Sketch.</desc>
    <defs></defs>
    <g id="Page-1" stroke="none" stroke-width="1" fill="none" fill-rule="evenodd">
        <g id="Answer-View---Two-Scroll-Search-Concepts-Copy" transform="translate(-1279.000000, -80.000000)">
            <g id="Group" transform="translate(70.000000, 60.000000)">
                <g id="ic_save" transform="translate(1204.000000, 15.000000)">
                    <polygon id="Bounds" points="0 0 30 0 30 30 0 30"></polygon>
                    <path class='saveIcon' d="M20.9444444,5 L7.27777778,5 C6.01361111,5 5,6.025 5,7.27777778 L5,23.2222222 C5,24.475 6.01361111,25.5 7.27777778,25.5 L23.2222222,25.5 C24.475,25.5 25.5,24.475 25.5,23.2222222 L25.5,9.55555556 L20.9444444,5 L20.9444444,5 Z M15.25,23.2222222 C13.3594444,23.2222222 11.8333333,21.6961111 11.8333333,19.8055556 C11.8333333,17.915 13.3594444,16.3888889 15.25,16.3888889 C17.1405556,16.3888889 18.6666667,17.915 18.6666667,19.8055556 C18.6666667,21.6961111 17.1405556,23.2222222 15.25,23.2222222 L15.25,23.2222222 Z M18.6666667,11.8333333 L7.27777778,11.8333333 L7.27777778,7.27777778 L18.6666667,7.27777778 L18.6666667,11.8333333 L18.6666667,11.8333333 Z" id="Icon" fill="#878D90"></path>
                </g>
            </g>
        </g>
    </g>
</svg>
